inDegrees=no
num_controls=7
num_derivatives=13
num_iterations=90
num_multipliers=7
num_parameters=0
num_slacks=7
num_states=26
objective=0.333174
objective_accelerations=0.038270
objective_balance=0.001358
objective_effort=0.028016
objective_height=0.264050
objective_ligament=0.001481
solver_duration=968.225388
status=Solve_Succeeded
success=true
DataType=double
version=3
OpenSimVersion=4.5
endheader
time	/jointset/ground_pelvis/pelvis_tilt/value	/jointset/ground_pelvis/pelvis_tx/value	/jointset/ground_pelvis/pelvis_ty/value	/jointset/hip_r/hip_flexion_r/value	/jointset/hip_r/hip_adduction_r/value	/jointset/hip_r/hip_rotation_r/value	/jointset/back/lumbar_extension/value	/jointset/patellofemoral_r/patellar_flexion_r/value	/jointset/knee_r/knee_flexion_r/value	/jointset/knee_r/knee_adduction_r/value	/jointset/knee_r/knee_rotation_r/value	/jointset/ankle_r/ankle_angle_r/value	/jointset/subtalar_r/subtalar_angle_r/value	/jointset/ground_pelvis/pelvis_tilt/speed	/jointset/ground_pelvis/pelvis_tx/speed	/jointset/ground_pelvis/pelvis_ty/speed	/jointset/hip_r/hip_flexion_r/speed	/jointset/hip_r/hip_adduction_r/speed	/jointset/hip_r/hip_rotation_r/speed	/jointset/back/lumbar_extension/speed	/jointset/patellofemoral_r/patellar_flexion_r/speed	/jointset/knee_r/knee_flexion_r/speed	/jointset/knee_r/knee_adduction_r/speed	/jointset/knee_r/knee_rotation_r/speed	/jointset/ankle_r/ankle_angle_r/speed	/jointset/subtalar_r/subtalar_angle_r/speed	/forceset/tau_hip_flexion_r	/forceset/tau_hip_adduction_r	/forceset/tau_hip_rotation_r	/forceset/tau_knee_flexion_r	/forceset/tau_ankle_angle_r	/forceset/tau_subtalar_angle_r	/forceset/tau_lumbar_extension	lambda_cid13_p0	lambda_cid14_p0	lambda_cid14_p1	lambda_cid14_p2	lambda_cid14_p3	lambda_cid14_p4	lambda_cid14_p5	/jointset/ground_pelvis/pelvis_tilt/accel	/jointset/ground_pelvis/pelvis_tx/accel	/jointset/ground_pelvis/pelvis_ty/accel	/jointset/hip_r/hip_flexion_r/accel	/jointset/hip_r/hip_adduction_r/accel	/jointset/hip_r/hip_rotation_r/accel	/jointset/back/lumbar_extension/accel	/jointset/patellofemoral_r/patellar_flexion_r/accel	/jointset/knee_r/knee_flexion_r/accel	/jointset/knee_r/knee_adduction_r/accel	/jointset/knee_r/knee_rotation_r/accel	/jointset/ankle_r/ankle_angle_r/accel	/jointset/subtalar_r/subtalar_angle_r/accel	gamma_cid13_p0	gamma_cid14_p0	gamma_cid14_p1	gamma_cid14_p2	gamma_cid14_p3	gamma_cid14_p4	gamma_cid14_p5
0.5	-0.1798874831762572	0.0256071189154911	0.798927572642756	0.9473344290928744	-0.2243740381805307	-0.1196739796654948	-0.6508208319002422	0.9725624850705472	0.972562485070528	-0.04888157307069462	0.1744954873797698	0.2973734108726938	0.1373743173270969	-0.4593313717128166	-0.2111272024325264	-0.5318612155554263	2.020215066856684	-0.0113556298316501	0.1830335276889217	-0.7380855706121943	1.979414502901033	1.979414502901034	-0.4677908139947635	-0.000297801094084007	0.5313984678673634	0.1922867188959645	-0.2192187710949704	0.02246651179058226	0.01517487406751865	-0.2695684327384376	-0.0152655739276778	-0.002829289749121811	0.2521829128189669	-7.54071467995556	-47.35327581747588	-8.653617895159664	0.8119674807340758	-3.582227507958322	-638.8754336957505	52.73016712704582	0.3959026458033052	0.6236557898681394	-0.452537929473985	-1.340353235693428	-0.2478792575045169	-0.6103667037575223	1.86239746738084	-1.386487443546721	-1.386487443546721	0.4775909017978716	-0.03452392890798021	-0.615139652041967	-0.4218081180550313	-1.641310625406881e-07	-1.681212077542131e-07	6.193112089021923e-07	-1.694290910113203e-06	3.733838462950694e-08	-2.936359628537645e-07	3.999551766596129e-07
0.51	-0.184459967837654	0.02352722924355215	0.7935875850794426	0.9674663376586063	-0.2245007743536289	-0.1178731561883262	-0.6581081421572426	0.9922845299492902	0.9922845299492786	-0.05353276699484318	0.1744917564227122	0.3026554844795571	0.1392742215559011	-0.4550921120670493	-0.2048331381325325	-0.5360159315435339	2.005897997416865	-0.01397816764642252	0.1771083365013006	-0.7192962931819322	1.964725562014595	1.964725562014596	-0.4624413518488601	-0.0004248173775303878	0.5249375005639864	0.1876639434617471	-0.226323225493706	0.02355603738769058	0.01518056126531513	-0.2742643543782206	-0.01642559217559157	-0.002368398707472441	0.2586034742672664	-6.621547463610804	-48.05757378023932	-8.752412985726583	1.028344680482288	-3.563465375861995	-644.2221990974346	52.90880254401723	0.4489367788806387	0.6349306653996979	-0.3789413617000657	-1.517705193919805	-0.2676449214577201	-0.5872987423620288	1.899221021801631	-1.550401038182823	-1.550401038183024	0.564693578134287	0.00141399898725821	-0.6734138522196315	-0.4871645955617367	-1.751010073666461e-07	-2.017292957733476e-07	3.808899297047781e-07	-2.015449549917401e-06	7.885589787340092e-08	-2.96167916115597e-07	1.848224248794876e-07
0.52	-0.1889878600716099	0.02151080999768001	0.7882096497706039	0.9874470112507818	-0.2246533766804704	-0.1161323253062588	-0.6652051540117496	1.011851624693769	1.01185162469377	-0.05813025235610126	0.1744873961982244	0.30787058069684	0.1411269675624721	-0.4504128862245905	-0.1984331172191629	-0.5394507646604827	1.989968072145301	-0.01652886058095783	0.1710350086697742	-0.7000258901135586	1.948424476048533	1.948424476048532	-0.457049101417049	-0.0004236545789672351	0.5180029899512456	0.1828550744492628	-0.2334276798924396	0.0246455629847895	0.01518624846312384	-0.2789602760180014	-0.01758561042350792	-0.001907507665839009	0.2650240357155689	-5.765137758472194	-48.7580052359372	-8.844933806931369	1.23732722640294	-3.583043372836005	-649.5242395217308	53.15166755739597	0.4838958851416627	0.6448471125432275	-0.3085613552422716	-1.662924402042508	-0.2335102814571049	-0.639994032538632	1.958622595003179	-1.708916459471912	-1.708916459471915	0.4861485589793884	-0.00888811250602819	-0.709848313914784	-0.459026833708456	-1.955304460730106e-07	-2.543811452070401e-07	6.871769191310537e-08	-2.523236475722556e-06	1.387522533489006e-07	-3.110262170972252e-07	-9.611567178649408e-08
0.53	-0.1934667590341845	0.01955882186769864	0.7828009931845117	1.007260440207671	-0.2248314546753534	-0.1144504515818304	-0.672107181864131	1.031248084561662	1.031248084561639	-0.06267099910020171	0.1744828746982826	0.3130139036962784	0.1429300596345001	-0.4452914818252319	-0.1919567698797473	-0.5421568503850198	1.972456728510106	-0.01908014849057259	0.1654092529705173	-0.6803132063555466	1.930620000995348	1.930620000995347	-0.4510016640429886	-0.0004863390494174038	0.5105819040409246	0.1777171889859196	-0.240605560793222	0.02585642096641467	0.01525034203674971	-0.2835029590232388	-0.01922913113034134	-0.001631008411664588	0.2714241464200697	-4.971822321799181	-49.64351908203114	-9.059589862862872	1.476801888498336	-3.352726367869245	-654.9419775876778	53.16358527144458	0.5375438870582504	0.6502234217194501	-0.2331406212510206	-1.834428550520223	-0.2653498276166872	-0.5137963142023955	1.987562367340905	-1.853296256219742	-1.853296256219821	0.6788376549198983	-0.006367474203354144	-0.7702045850774616	-0.5484376651912424	-1.693352292614336e-07	-1.9736044909671e-07	2.851965142091302e-07	-2.019481033753736e-06	8.09729933152175e-08	-2.667287332611725e-07	8.549714872497645e-08
0.54	-0.1978921877188206	0.01767183618652713	0.7773689740531358	1.026890917886956	-0.2250349279057099	-0.1128228214095179	-0.6788100886587043	1.050459083033428	1.05045908303338	-0.06714831220489707	0.1744774445816504	0.3180806226655164	0.1446803191993862	-0.4397188306368586	-0.185432627457192	-0.544123273717224	1.95337781662442	-0.02160790767630492	0.1601862982479337	-0.6602016785519053	1.911332196823041	1.911332196823039	-0.4443623735369075	-0.0006053779154208007	0.5026821839111338	0.1722885730208156	-0.2477834416940031	0.02706727894802616	0.01531443561035451	-0.2880456420284772	-0.02087265183717815	-0.00135450915751219	0.277824257124573	-4.241390528334742	-50.5252823155301	-9.265905065105054	1.706168803824834	-3.165178617022149	-660.317064207726	53.26400686180583	0.5741452429446583	0.6544061291711407	-0.160628876775669	-1.976438052140719	-0.2288045366806247	-0.5594338372040131	2.038391404129089	-2.005582283296583	-2.005582283296572	0.6045191853835209	-0.02015899161663746	-0.8055751578087994	-0.5171729340606446	-9.155528719596329e-08	-1.899991536320456e-08	1.086565871070274e-06	-3.965723338222065e-07	-1.070005647286269e-07	-1.569822960098125e-07	7.78868430794485e-07
0.55	-0.2022598632460768	0.01585029508369142	0.7719210138660341	1.046323055037783	-0.2252627175632503	-0.1112501515377935	-0.6853098477243952	1.069469334838922	1.069469334838902	-0.07156163080081691	0.1744719748663014	0.3230662668753038	0.1463763587208848	-0.4337508497009105	-0.1788694022490452	-0.5453405131833313	1.93279160619894	-0.02394087435378501	0.1544121240947267	-0.6396942915095158	1.890472229508263	1.89047222950826	-0.4382119420051661	-0.0005017992010135165	0.494377128443778	0.1668812324019742	-0.2546786472596395	0.02791048464060749	0.01547518996378306	-0.2931064010838953	-0.02203944436230833	-0.001129192686375065	0.283997236944558	-3.573581465283907	-51.2670697872615	-9.47239896108128	1.938372199085366	-3.057710355310913	-665.8189054360688	53.4769068462416	0.617948812368081	0.6581674393346517	-0.08305332769958085	-2.138402226511735	-0.2340294226500532	-0.5768117279013408	2.06528881586784	-2.16308434471024	-2.163084344710423	0.6339089750168523	0.0237801684562133	-0.8534475074046012	-0.5579323676287216	-4.561624322604246e-08	8.312105306890401e-08	1.508383891679482e-06	5.153434011120341e-07	-2.116318835570147e-07	-9.008930283786168e-08	1.159297576806647e-06
0.5600000000000001	-0.2065658941052835	0.01409456357747679	0.766464724915037	1.065541592146603	-0.2255135342254352	-0.1097333039123151	-0.6916028576273473	1.088263610893441	1.088263610893449	-0.07591072431382392	0.1744671737111839	0.3279667651771774	0.1480172412878286	-0.4273898970270316	-0.1722707081329784	-0.5457890264962949	1.910657808223061	-0.02621330860599373	0.1490218490006281	-0.6188518460041659	1.868137046627809	1.868137046627805	-0.4315173569555286	-0.000471665867134069	0.4856530023281955	0.1612571821098182	-0.2615738528252748	0.02875369033316886	0.01563594431721125	-0.2981671601393116	-0.02320623688744363	-0.0009038762152721157	0.2901702167645455	-2.967251273916377	-52.00741728917863	-9.672475320419558	2.162511916377221	-2.978529690930009	-671.3147987509166	53.70983760847422	0.6527395905309199	0.6614999107550669	-0.006883646146905773	-2.285955562220322	-0.2166980516263513	-0.4826540253823312	2.105403096721261	-2.300625396431868	-2.300625396431867	0.7133498889627404	-0.03484806772217703	-0.8893892874541852	-0.5605148687235995	-3.788627697077973e-08	9.37545431393394e-08	1.474740308786382e-06	5.740675780495553e-07	-2.162525153268579e-07	-7.462044256120007e-08	1.164196159550005e-06
0.5700000000000001	-0.2108064501657585	0.01240492131803517	0.7610077755340231	1.084531312681629	-0.2257865669675715	-0.1082692272736794	-0.6976858203682766	1.106827293411877	1.10682729341189	-0.08019121381266066	0.1744624479804568	0.332778078192442	0.1496011848026214	-0.4206592243945475	-0.1656584570568627	-0.5454730003533748	1.887041678184106	-0.02836866043950238	0.1437845082073207	-0.5976974122636178	1.844361981364149	1.844361981364145	-0.4245791338095801	-0.0004689828721357209	0.4765524410978001	0.1555243053948948	-0.2683261678237356	0.02958210406170847	0.0157074678524444	-0.3031327347960022	-0.02459057401690401	-0.0006895806232088524	0.2961489346834347	-2.421096178865107	-52.81588344962167	-9.882418850159336	2.380403016915943	-2.775331609967529	-676.7131120701143	53.91083173962914	0.6925573243007456	0.660936937448335	0.07000997338839798	-2.436120646481402	-0.2111182498908391	-0.5456703683614125	2.126957000491362	-2.451561742926939	-2.451561742926854	0.6844473533612245	0.01867511226760627	-0.9290061719193826	-0.5804561724984472	-2.880497320480908e-08	1.028578292355876e-07	1.419845615762337e-06	6.168220815056718e-07	-2.166952166370089e-07	-6.298875032276519e-08	1.160008226176568e-06
0.58	-0.214977834254969	0.01078137141563636	0.7555578192602136	1.103277536131917	-0.226080386128175	-0.1068578032953944	-0.7035559400742463	1.125146102347362	1.125146102347372	-0.08440224331483874	0.1744579188055034	0.3374966622691856	0.1511276431303408	-0.4135555027743191	-0.1590522367244153	-0.5443904050553808	1.861958391275217	-0.03037059230011793	0.138491316931758	-0.5762832390122781	1.819162330036735	1.819162330036732	-0.4176253576256213	-0.0004323547108664966	0.4671072146239174	0.1497601446951018	-0.2750784828221937	0.03041051779023892	0.01577899138757585	-0.3080983094527028	-0.02597491114636662	-0.00047528503115912	0.3021276526023273	-1.934004220527524	-53.62412610268291	-10.08649436327695	2.590702006023101	-2.598155604714152	-682.1256235005278	54.12873984924944	0.7273493880798532	0.6602937620213357	0.1464301848678676	-2.579386936207115	-0.1860140570477397	-0.4938241218333888	2.157350998879605	-2.585542609182542	-2.585542609182541	0.7164604965647954	-0.02805903446798529	-0.9583223361517019	-0.5667716656975214	-1.796378802954454e-08	1.099682915514988e-07	1.337275058381714e-06	6.387788706604241e-07	-2.116968922322121e-07	-5.635430018062545e-08	1.143986690418467e-06
